<svg width="32" height="32" viewBox="0 0 32 32" fill="none" xmlns="http://www.w3.org/2000/svg">
  <rect width="32" height="32" rx="12" fill="url(#paint0_linear_934_7662)" />
  <path
    d="M21.4279 10.8695C20.4914 10.3949 19.4092 10.7844 19.1048 11.7058C19.0263 11.9432 19.0186 12.3257 19.0186 16.0027C19.0186 19.4354 19.0297 20.0721 19.0932 20.261C19.326 20.9536 19.8701 21.3368 20.6153 21.3331C21.2035 21.3303 21.628 21.1216 21.9192 20.6922L21.9358 20.6679L21.9453 20.6541L21.9457 20.6534L21.9465 20.6523C21.9568 20.6372 21.9667 20.6227 21.9763 20.6086C21.9808 20.6018 21.9853 20.5951 21.9896 20.5885C22.0049 20.5653 22.0192 20.5426 22.0324 20.5193C22.2091 20.2087 22.2091 19.7862 22.209 16.3945L22.209 16.0025C22.2092 12.289 22.2022 11.945 22.1211 11.6997C21.9989 11.3301 21.7511 11.0333 21.4279 10.8695Z"
    fill="white" />
  <path
    d="M23.1133 12.1759C23.5221 12.1738 23.7225 12.2098 23.958 12.3275C24.2015 12.4492 24.4066 12.6979 24.5146 13.0025C24.5867 13.2057 24.5964 13.5631 24.5964 16.0027V16.1878C24.5966 18.5697 24.5966 18.9865 24.4083 19.2574C24.3635 19.3218 24.3081 19.378 24.2396 19.4503C23.9727 19.732 23.7415 19.8152 23.2 19.8245C22.97 19.8284 22.7815 19.6327 22.7814 19.3899L22.7794 12.5301C22.7794 12.3352 22.9286 12.1769 23.1133 12.1759Z"
    fill="white" />
  <path
    d="M25.5011 14.8589C25.8444 14.8674 26.0187 14.9062 26.1906 15.0124C26.3625 15.1186 26.5358 15.3752 26.6106 15.6344C26.738 16.0756 26.6452 16.5237 26.3642 16.8246C26.1442 17.0602 25.9443 17.1354 25.5095 17.1462C25.3206 17.1509 25.1651 16.9906 25.1651 16.7912V15.2053C25.1651 15.0107 25.3168 14.8543 25.5011 14.8589Z"
    fill="white" />
  <path
    d="M11.3885 10.6759C11.7282 10.6759 12.0049 10.7485 12.2748 10.9084C12.546 11.0691 12.7827 11.3694 12.8958 11.6965C12.982 11.9456 12.9876 12.2135 12.9857 16.0005L12.9855 16.3681C12.984 19.7785 12.9838 20.1983 12.8113 20.5128C12.787 20.5569 12.7594 20.599 12.7279 20.647C12.7201 20.6589 12.7121 20.6712 12.7038 20.684C12.4261 21.1109 11.9822 21.3302 11.3899 21.3331C10.6423 21.3368 10.1009 20.9554 9.86797 20.2609C9.80462 20.0721 9.79341 19.4316 9.79327 16.0025C9.79313 12.3241 9.80074 11.9432 9.87927 11.7057C10.0918 11.0632 10.6594 10.6759 11.3885 10.6759Z"
    fill="white" />
  <path
    d="M8.78602 12.1795C8.25837 12.1922 8.02556 12.2776 7.76269 12.555L7.74093 12.5779C7.68239 12.6395 7.63388 12.6905 7.59402 12.7479C7.40572 13.0188 7.40575 13.4355 7.40589 15.8164V16.1889C7.40575 18.5698 7.40572 18.9865 7.59402 19.2574C7.6339 19.3148 7.68222 19.3657 7.74078 19.4273L7.7412 19.4277L7.76269 19.4503C8.02961 19.732 8.26086 19.8152 8.80226 19.8245C9.03232 19.8285 9.22082 19.6327 9.22089 19.39L9.22198 16.0175C9.22234 14.8462 9.21771 14.2149 9.21356 13.6477L9.21354 13.6435C9.21114 13.3158 9.2089 13.0091 9.20787 12.6316C9.20719 12.3848 9.01979 12.1738 8.78602 12.1795Z"
    fill="white" />
  <path
    d="M5.98378 14.9342C6.08162 14.8946 6.30743 14.8592 6.48558 14.8553C6.6751 14.8513 6.8265 15.0233 6.82919 15.2233C6.83292 15.5009 6.83532 15.5852 6.83675 15.6355C6.83861 15.7013 6.83883 15.7093 6.8383 16.0183L6.83693 16.8C6.83659 16.9946 6.68378 17.1505 6.4994 17.1442C6.05017 17.1287 5.85049 17.0547 5.6346 16.8234C5.1079 16.2593 5.30179 15.2101 5.98378 14.9342Z"
    fill="white" />
  <path
    d="M13.4513 15.9825C13.4513 15.3488 13.9381 14.8352 14.5385 14.8352H17.4378C18.0383 14.8352 18.525 15.3488 18.525 15.9825C18.525 16.6162 18.0383 17.1299 17.4378 17.1299H14.5385C13.9381 17.1299 13.4513 16.6162 13.4513 15.9825Z"
    fill="white" />
  <defs>
    <linearGradient id="paint0_linear_934_7662" x1="32" y1="32" x2="-6.07713" y2="20.9599"
      gradientUnits="userSpaceOnUse">
      <stop stop-color="#6842FF" />
      <stop offset="1" stop-color="#896BFF" />
    </linearGradient>
  </defs>
</svg>
  